<?xml version="1.0" encoding="UTF-8"?>
<svg id="Layer_1" data-name="Layer 1" xmlns="http://www.w3.org/2000/svg" version="1.1" viewBox="0 0 512 512">
  <defs>
    <style>
      .cls-1 {
        fill: #3f585c;
        stroke-width: 0px;
      }

      .cls-2 {
        fill: none;
        stroke: #9fc466;
        stroke-linecap: round;
        stroke-linejoin: round;
        stroke-width: 20px;
      }
    </style>
  </defs>
  <g>
    <path class="cls-1" d="M345.5,2.9c-17.8,2.9-36,12-48.4,24.2-11,10.8-17.8,21.9-22.6,36.9-4,12.4-4.7,32-1.6,45.4,2.5,10.5,8.8,24.5,14.5,31.9,2.1,2.7,3.6,5,3.4,5.1-.2.2-2.4,1.7-4.9,3.4-7.6,5.1-14.3,13.4-20.2,24.9-10.5,20.6-34.8,75.4-36.8,83.1-4.5,16.9-3.4,37.3,2.6,49.2,4.5,8.9,7.8,11.5,35.4,28,14.6,8.7,27.6,16.9,28.8,18.1,3.3,3.6,4.3,7.3,4.3,15.4,0,11.7-2.6,21.9-13.9,53.5-7.8,22.2-5.6,41.5,6.3,53.1,6.5,6.4,15.5,11,25.8,13.3,1.6.4,3.4,1.8,4.2,3.4,4.2,8.1,15.3,14.5,28.3,16.4,12.5,1.8,22.2-1.1,27.5-8.3,2.1-2.8,16.5-50.3,28.3-93.4,12.3-45.2,13-49.1,10-59.2-4.5-15-26.2-38.3-53.7-57.5-5-3.5-9.9-7-11-7.9-2-1.5-1.8-2,9.1-23,6.2-11.8,11.6-21.8,12-22.2.5-.4,2.2,3.3,4,8.3,11.8,34,29.2,55.7,46.4,58.3,5.6.9,18.4-.8,25-3.3,15.8-5.9,27.9-21.4,36.1-46.1,4.8-14.3,6.6-24.2,6.6-35.3,0-17.7-5-27-17.8-33.3-5-2.4-6.9-2.8-14.7-2.8s-9.8.4-14.7,2.7c-3.1,1.4-7.7,4.5-10.2,6.9-2.6,2.3-4.8,4-4.9,3.8-.2-.2-1.6-2.6-3.2-5.4-4-6.9-10.5-13.6-18.1-18.6-3.6-2.3-6.1-4.5-5.7-4.9.4-.3,3.7-2.7,7.3-5.2,23.3-16.3,37-42.9,37-71.8s-7.9-43-23.4-59.7c-11.8-12.7-25.7-21.1-42.1-25.4-8.8-2.3-26.7-3.3-35-2ZM373.8,24.4c23.2,6.3,41.3,23.4,48.8,46.3l2.7,8.2-3.1,2.6c-1.7,1.4-3.3,3.8-3.7,5.4-.8,3.6,1.6,9.5,4.4,11.1,2.6,1.3,2.7,4.3.5,12.2-1.5,5.1-2.2,6.2-5.5,7.8-7.9,4.1-16.4,3.5-24.3-1.7-5.5-3.6-11.2-3.5-14.3.1-2.9,3.5-3,8.4-.1,12.1s12.5,8.1,20.8,9.5l6.8,1.1-4.2,3.8c-9.1,8.4-21.1,14.3-33.4,16.7-10.9,2-14.4,6.5-11,13.9,1.6,3.5,5.7,5.5,11,5.5,10,0,25,5.9,32.9,12.9,6.1,5.3,9.4,11.9,11.4,22.5,4.8,26.2,17.3,41,26.6,31.7,3.5-3.6,3.7-6.8.7-13-4.6-9.4-1.3-23.6,6.9-29.9,4.7-3.5,13.6-3.9,18-.6,5.3,3.9,6.5,7.7,6,19.4-.4,8.7-1.1,12.4-4.1,21.4-7,21-16.5,35.5-26.2,40.1-4.4,2.1-12.6,3.1-17.7,2.1-12.2-2.3-23.9-19.6-31.1-45.9-6.1-22-9.7-27.7-17.8-27.7s-15.6,7.4-31.9,40.2c-5.2,10.4-9.7,18.8-10.1,18.8s-3-1.4-5.8-3.2c-6.6-4.1-10.4-4.1-14.2,0-3.7,4.3-3.7,8.5,0,12,1.6,1.5,8,5.8,14.3,9.6,37.8,23,68.4,50.9,71.3,65.1.8,3.6-4.5,24.8-17.3,69.5-15.1,52.9-18.9,65.3-20.3,66.2-.7.5-4.1.7-7.5.5-5-.2-7.1-.9-10.4-3.2-7.6-5.4-8.4-7.2-8.3-19.3,0-9.8.4-11.8,4.3-23.7,6.2-18.9,8.2-29,8.8-44.8.9-22.1-2.7-34-13.1-43.4-3.2-2.9-20.9-13.9-44.6-27.8-42.2-24.8-42.5-25-45.6-35.1-2-6.6-1.7-17.4.6-27.2,1.8-7.5,24.2-58.7,35.7-81.5,3.9-7.9,9.9-14.8,16.2-18.9,5.3-3.3,7.6-3.5,11.6-.8,5.7,3.8,12,2,14.5-4,1.9-4.6-.1-8.1-7.8-13.7-17-12.5-27.5-33.6-27.5-55.8s1.8-20,7.5-31.5c7.1-14.5,22.2-27.9,38-33.6,12-4.4,28.7-5.2,40.6-2ZM324.4,371.3c4.4,5.8,5.9,13.6,5.3,27.2-.7,13.9-3.1,25.3-8.7,41.6-2.2,6.3-4.5,15.1-5.1,19.5-.6,4.3-1.2,8.1-1.4,8.2-.2.2-2.8-1.2-5.7-3.1-6.1-3.9-8.6-7.9-9.5-15.5-.8-6.9,1.2-14.9,7.4-30.2,7.1-17.2,10.3-29.8,11-42.7.5-9.5.7-10.1,2.4-9.2,1,.5,2.9,2.4,4.3,4.2Z"/>
    <path class="cls-1" d="M379.9,79.9c-2.4,2.4-2.9,3.8-2.9,7.6s.5,5.2,2.9,7.6c5.5,5.5,14.9,3,17-4.6,2.8-10.3-9.6-18-17-10.6Z"/>
  </g>
  <line class="cls-2" x1="214" y1="314" x2="104" y2="357"/>
  <line class="cls-2" x1="226.1" y1="333.7" x2="125.8" y2="395.9"/>
  <path class="cls-2" d="M70.9,345.4c-6.1-6.5-9.9-15.3-9.9-24.9,0-20.2,16.3-36.5,36.5-36.5s17.9,3.5,24.3,9.3"/>
  <path class="cls-2" d="M67.6,398c-4.3,1.7-8.9,2.7-13.8,2.7-20.2,0-36.5-16.3-36.5-36.5s16.3-36.5,36.5-36.5"/>
  <path class="cls-2" d="M134.4,444.4c-9.2,12.6-24.1,20.8-41,20.8-28,0-50.7-22.7-50.7-50.7s.4-7.5,1.2-11.1"/>
  <path class="cls-2" d="M195.5,415.9c0,20.2-16.3,36.5-36.5,36.5s-23.6-6.3-30.2-15.9"/>
</svg>