<svg version="1.2" xmlns="http://www.w3.org/2000/svg" viewBox="0 0 1122 1122" width="112" height="112"><style>.a{fill:#fd9027}.b{opacity:.1;fill:#fff}.c{opacity:.3;fill:#cc681d}.d{fill:#768439}.e{fill:#7e912f}.f{fill:#6a7733}.g{opacity:.4;fill:#bc5b19}.h{fill:#849a31}</style><path class="a" d="m372.4 371.2c-73.8 69.9-113.5 175.8-98.9 276.4 14.7 100.7 85.4 192.4 180.8 227.8 34.6 12.8 71.6 18.4 108.4 20.8 118.4 7.7 280.5-17.7 330.4-142.3 22.8-57.2 39.8-117.7 39.4-179.3-0.8-142.9-132.7-306.3-284-304.3-99.6 1.4-202.6 31.4-276.1 100.9z"/><path class="b" d="m638.8 364c-8.5 33.5 18.2 64.3 38.8 92.1 24.3 32.7 42.4 70.1 52.9 109.5 4.5 16.9 8.5 35.6 22.4 46.2 21.7 16.4 53.5 3 72.9-16 42.6-41.8 56.7-109.7 35.1-165.3-22.6-58.4-192.9-181.8-222.1-66.5z"/><path class="c" d="m433 748.1c22.3 21.2 42.7 46.1 71.4 56.7 15 5.5 31.3 6.7 47.2 7.8q33 2.3 65.9 4.6c7.1 0.5 14.9 1.3 19.9 6.4 4.9 5.1 5.5 13.1 3.4 19.8-14.2 45.4-117.1 26-149.8 18.7-38.7-8.7-77.2-24.9-106.9-51.8-20.5-18.5-55-76.7-5.8-87.2 18-3.8 35.6 7.6 49.2 19.9q2.8 2.5 5.5 5.1z"/><path class="c" d="m543.9 340.1c-8.7-0.1-17.4-0.8-26.1-1.5-4.2-0.3-8.4-0.6-12.3-2.1-6.9-2.7-10.2-7.5-5.9-14 4.9-7.6 15.1-9.8 24.1-9.5 9 0.3 18.1 2.5 26.9 0.8 9.5-1.8 17.7-7.8 26.7-11.3 9-3.6 20.7-4 26.9 3.5 18.9 22.8-27.6 32.1-41.4 33.4-6.3 0.7-12.6 0.8-18.9 0.7z"/><path class="d" d="m529.9 228.4c-0.4-1.9-0.8-3.8-1.1-5.8-0.3-2.2-0.3-4.7 1.1-6.5 2.6-3.5 13.6-2.6 17.3-2.4 2.7 0.2 5.5 0.9 8 1.5 2.8 19.9 4.1 39.4 8.6 59.3 4.3 19.2 9.1 38.5 10.5 58.3-0.1-1.6-21.7 3.7-23.9 3.5-12.4-1.2-18.3-19.2-25.4-28.9-3.3-4.5-6.8-8.9-11.1-12.4-8.2-6.5-18.7-9.1-28.2-13.5-1-0.4-2.1-1-2.5-2-0.7-1.3 0-3 1-4.1 4.3-4.8 19.4-7.3 25.1-4.8 5.3 2.2 9.3 6.4 13.2 10.5 4.7 5 10.5 14.1 16.8 16.2 3.7-11.6-3.7-27.3-5.7-39-1.7-10-1.4-19.8-3.7-29.9z"/><path class="e" d="m424.6 312.1c-89.9-2.7-177.9-45.8-235.1-115.2 58.1 10.5 117.7 6.7 176.6 11.3 50.9 4.1 104.7 15.4 146.4 46.6 61.2 45.8-55.2 58.3-87.9 57.3z"/><path class="f" d="m533.7 217.9q0.1 0.1 0.2 0.1 0.4-0.5 0.7-0.9z"/><path class="f" d="m548.8 218.5c-2.3-1.2-5-0.9-7.5-0.5-2.5 0.3-5 0.7-7.4 0q-0.7 1-1.4 1.9c2.2 6.5 10.7 9.8 16.7 6.6 0.7-0.4 1.5-0.9 2-1.7 1.4-2.1-0.1-5.2-2.4-6.3z"/><path class="a" d="m578.9 315.9c7.4-4.6 14.6-10.1 23.2-11.3 2.1-0.3 4.4-0.3 6.3 0.8 2.6 1.4 3.8 4.6 4 7.5 0.3 9.7-8.6 16.9-17.2 21.4-10.7 5.5-22.2 9.6-34.2 10.7-17.5 1.5-34.9-3.2-51.8-7.9-2.1-0.6-4.2-1.1-5.7-2.7 5.9-1.2 13.2 0.2 19.4-0.3 6.5-0.5 13-1.5 19.4-3 12.9-3.1 25.3-8.2 36.6-15.2z"/><path class="g" d="m578.9 315.9c7.4-4.6 14.6-10.1 23.2-11.3 2.1-0.3 4.4-0.3 6.3 0.8 2.6 1.4 3.8 4.6 4 7.5 0.3 9.7-8.6 16.9-17.2 21.4-10.7 5.5-22.2 9.6-34.2 10.7-17.5 1.5-34.9-3.2-51.8-7.9-2.1-0.6-4.2-1.1-5.7-2.7 5.9-1.2 13.2 0.2 19.4-0.3 6.5-0.5 13-1.5 19.4-3 12.9-3.1 25.3-8.2 36.6-15.2z"/><path class="h" d="m529.6 275.6c-1.3-6-6.6-12.9-17.1-20.8-41.7-31.2-95.5-42.5-146.4-46.6-58.9-4.6-118.5-0.8-176.6-11.3 57.2 21.8 113.6 38.2 174.4 45.1 21 2.4 42.3 3 62.7 8.1 35.3 8.8 66.8 27.2 103 25.5z"/></svg>